<svg width="57" height="44" viewBox="0 0 57 44" fill="none" xmlns="http://www.w3.org/2000/svg">
<mask id="path-1-outside-1_77_32" maskUnits="userSpaceOnUse" x="0" y="0" width="57" height="44" fill="black">
<rect fill="white" width="57" height="44"/>
<path d="M18.924 21.306C17.8287 21.4507 16.7437 21.7607 15.669 22.236C14.5944 22.7113 13.7264 23.259 13.065 23.879C14.0157 23.8997 15.1007 24.0237 16.32 24.251C17.5394 24.4577 18.5417 24.7057 19.327 24.995C19.017 27.1443 18.676 28.808 18.304 29.986C17.9527 31.1433 17.498 32.0423 16.94 32.683C15.9894 33.7577 14.6254 34.6567 12.848 35.38C11.0914 36.1033 9.28303 36.465 7.42303 36.465C5.83169 36.465 4.45736 36.031 3.30003 35.163C2.14269 34.2743 1.50203 33.055 1.37803 31.505C2.08069 29.5623 2.95903 27.7643 4.01303 26.111C5.06703 24.437 6.42069 22.8353 8.07403 21.306L8.72503 24.22C7.60903 25.088 6.69969 25.894 5.99703 26.638C5.29436 27.382 4.66403 28.188 4.10603 29.056C4.64336 29.8827 5.32536 30.513 6.15203 30.947C6.99936 31.3603 8.06369 31.567 9.34503 31.567C10.957 31.567 12.4554 31.3087 13.84 30.792C15.2247 30.2547 16.3717 29.5623 17.281 28.715C16.4544 28.4877 15.3487 28.281 13.964 28.095C12.6 27.909 11.4117 27.8057 10.399 27.785C10.8124 26.111 11.422 24.499 12.228 22.949C13.3234 21.3577 14.6047 20.0453 16.072 19.012C17.56 17.9787 19.1824 17.2347 20.939 16.78L18.924 21.306ZM5.53203 39.534L11.143 38.015L10.523 41.208L5.00503 42.417L5.53203 39.534ZM37.3017 25.491L35.9687 29.118L35.3177 29.676L33.6747 29.831C33.1167 31.753 32.259 33.365 31.1017 34.667C29.9444 35.969 28.5184 36.62 26.8237 36.62C25.9144 36.62 24.8294 36.3823 23.5687 35.907C22.308 35.411 21.4194 34.9047 20.9027 34.388C22.804 33.83 24.8604 33.1377 27.0717 32.311C29.3037 31.4637 31.0707 30.6887 32.3727 29.986L33.9537 26.762C34.2637 26.142 34.5737 25.7287 34.8837 25.522C35.1937 25.2947 35.7104 25.1397 36.4337 25.057L37.1157 24.964L37.3017 25.491ZM43.7904 7.796C46.4977 5.83267 49.7424 3.93133 53.5244 2.092C53.1317 3.58 52.4394 4.98533 51.4474 6.308C48.0167 7.77533 44.9167 9.32533 42.1474 10.958L41.7754 10.555C42.4987 9.41833 43.1704 8.49867 43.7904 7.796ZM41.4964 11.392C41.6617 11.9087 41.7961 12.7973 41.8994 14.058C42.0854 16.166 42.1784 18.3153 42.1784 20.506C42.1784 22.366 42.1267 23.5027 42.0234 23.916C41.3621 25.9207 40.6491 27.388 39.8844 28.318C38.8097 28.8967 37.2804 29.279 35.2964 29.465L37.0944 24.753C37.6524 24.7117 38.4377 24.6083 39.4504 24.443C39.1611 21.6943 38.6444 18.6047 37.9004 15.174C38.4171 14.4093 39.0061 13.6757 39.6674 12.973C40.3287 12.2703 40.9384 11.7433 41.4964 11.392ZM53.6365 23.042C54.8559 25.4807 55.4655 27.7023 55.4655 29.707C55.4655 30.079 55.4552 30.3683 55.4345 30.575C55.4345 31.009 55.1969 31.7323 54.7215 32.745C54.2669 33.737 53.7089 34.5947 53.0475 35.318C50.3815 36.0207 47.5295 36.403 44.4915 36.465L46.1965 31.722C48.3045 31.722 50.3919 31.66 52.4585 31.536C51.7765 29.7587 50.7122 27.9297 49.2655 26.049L53.6365 23.042ZM50.3195 22.391C49.5962 21.833 48.8729 20.9443 48.1495 19.725L51.0325 17.803L51.4665 18.516C52.0452 19.4667 52.5309 20.19 52.9235 20.686L50.3195 22.391Z"/>
</mask>
<path d="M18.924 21.306C17.8287 21.4507 16.7437 21.7607 15.669 22.236C14.5944 22.7113 13.7264 23.259 13.065 23.879C14.0157 23.8997 15.1007 24.0237 16.32 24.251C17.5394 24.4577 18.5417 24.7057 19.327 24.995C19.017 27.1443 18.676 28.808 18.304 29.986C17.9527 31.1433 17.498 32.0423 16.94 32.683C15.9894 33.7577 14.6254 34.6567 12.848 35.38C11.0914 36.1033 9.28303 36.465 7.42303 36.465C5.83169 36.465 4.45736 36.031 3.30003 35.163C2.14269 34.2743 1.50203 33.055 1.37803 31.505C2.08069 29.5623 2.95903 27.7643 4.01303 26.111C5.06703 24.437 6.42069 22.8353 8.07403 21.306L8.72503 24.22C7.60903 25.088 6.69969 25.894 5.99703 26.638C5.29436 27.382 4.66403 28.188 4.10603 29.056C4.64336 29.8827 5.32536 30.513 6.15203 30.947C6.99936 31.3603 8.06369 31.567 9.34503 31.567C10.957 31.567 12.4554 31.3087 13.84 30.792C15.2247 30.2547 16.3717 29.5623 17.281 28.715C16.4544 28.4877 15.3487 28.281 13.964 28.095C12.6 27.909 11.4117 27.8057 10.399 27.785C10.8124 26.111 11.422 24.499 12.228 22.949C13.3234 21.3577 14.6047 20.0453 16.072 19.012C17.56 17.9787 19.1824 17.2347 20.939 16.78L18.924 21.306ZM5.53203 39.534L11.143 38.015L10.523 41.208L5.00503 42.417L5.53203 39.534ZM37.3017 25.491L35.9687 29.118L35.3177 29.676L33.6747 29.831C33.1167 31.753 32.259 33.365 31.1017 34.667C29.9444 35.969 28.5184 36.62 26.8237 36.62C25.9144 36.62 24.8294 36.3823 23.5687 35.907C22.308 35.411 21.4194 34.9047 20.9027 34.388C22.804 33.83 24.8604 33.1377 27.0717 32.311C29.3037 31.4637 31.0707 30.6887 32.3727 29.986L33.9537 26.762C34.2637 26.142 34.5737 25.7287 34.8837 25.522C35.1937 25.2947 35.7104 25.1397 36.4337 25.057L37.1157 24.964L37.3017 25.491ZM43.7904 7.796C46.4977 5.83267 49.7424 3.93133 53.5244 2.092C53.1317 3.58 52.4394 4.98533 51.4474 6.308C48.0167 7.77533 44.9167 9.32533 42.1474 10.958L41.7754 10.555C42.4987 9.41833 43.1704 8.49867 43.7904 7.796ZM41.4964 11.392C41.6617 11.9087 41.7961 12.7973 41.8994 14.058C42.0854 16.166 42.1784 18.3153 42.1784 20.506C42.1784 22.366 42.1267 23.5027 42.0234 23.916C41.3621 25.9207 40.6491 27.388 39.8844 28.318C38.8097 28.8967 37.2804 29.279 35.2964 29.465L37.0944 24.753C37.6524 24.7117 38.4377 24.6083 39.4504 24.443C39.1611 21.6943 38.6444 18.6047 37.9004 15.174C38.4171 14.4093 39.0061 13.6757 39.6674 12.973C40.3287 12.2703 40.9384 11.7433 41.4964 11.392ZM53.6365 23.042C54.8559 25.4807 55.4655 27.7023 55.4655 29.707C55.4655 30.079 55.4552 30.3683 55.4345 30.575C55.4345 31.009 55.1969 31.7323 54.7215 32.745C54.2669 33.737 53.7089 34.5947 53.0475 35.318C50.3815 36.0207 47.5295 36.403 44.4915 36.465L46.1965 31.722C48.3045 31.722 50.3919 31.66 52.4585 31.536C51.7765 29.7587 50.7122 27.9297 49.2655 26.049L53.6365 23.042ZM50.3195 22.391C49.5962 21.833 48.8729 20.9443 48.1495 19.725L51.0325 17.803L51.4665 18.516C52.0452 19.4667 52.5309 20.19 52.9235 20.686L50.3195 22.391Z" fill="url(#paint0_linear_77_32)"/>
<path d="M18.924 21.306L19.055 22.2974L19.6099 22.2241L19.8376 21.7127L18.924 21.306ZM15.669 22.236L15.2645 21.3215L15.2645 21.3215L15.669 22.236ZM13.065 23.879L12.3811 23.1495L10.5933 24.8255L13.0433 24.8788L13.065 23.879ZM16.32 24.251L16.1367 25.2341L16.1448 25.2356L16.1529 25.2369L16.32 24.251ZM19.327 24.995L20.3168 25.1378L20.4323 24.3365L19.6727 24.0567L19.327 24.995ZM18.304 29.986L17.3504 29.6848L17.3471 29.6955L18.304 29.986ZM16.94 32.683L17.689 33.3456L17.6941 33.3398L16.94 32.683ZM12.848 35.38L12.4711 34.4538L12.4673 34.4553L12.848 35.38ZM3.30003 35.163L2.69096 35.9562L2.70003 35.963L3.30003 35.163ZM1.37803 31.505L0.437651 31.1649L0.363928 31.3687L0.381212 31.5847L1.37803 31.505ZM4.01303 26.111L4.85627 26.6486L4.85926 26.6438L4.01303 26.111ZM8.07403 21.306L9.04997 21.088L8.67099 19.3916L7.39499 20.5719L8.07403 21.306ZM8.72503 24.22L9.33897 25.0094L9.83912 24.6203L9.70097 24.002L8.72503 24.22ZM5.99703 26.638L6.72404 27.3246L6.72404 27.3246L5.99703 26.638ZM4.10603 29.056L3.26485 28.5152L2.91529 29.059L3.26758 29.601L4.10603 29.056ZM6.15203 30.947L5.68719 31.8324L5.7003 31.8393L5.7136 31.8458L6.15203 30.947ZM13.84 30.792L14.1896 31.729L14.2018 31.7243L13.84 30.792ZM17.281 28.715L17.9628 29.4466L19.273 28.2257L17.5462 27.7508L17.281 28.715ZM13.964 28.095L13.8289 29.0858L13.8309 29.0861L13.964 28.095ZM10.399 27.785L9.42818 27.5453L9.12843 28.7593L10.3786 28.7848L10.399 27.785ZM12.228 22.949L11.4043 22.382L11.3693 22.4329L11.3408 22.4876L12.228 22.949ZM16.072 19.012L15.5016 18.1906L15.4962 18.1944L16.072 19.012ZM20.939 16.78L21.8526 17.1867L22.696 15.2923L20.6885 15.8119L20.939 16.78ZM5.53203 39.534L5.27072 38.5687L4.66177 38.7336L4.54833 39.3542L5.53203 39.534ZM11.143 38.015L12.1247 38.2056L12.4305 36.6304L10.8817 37.0497L11.143 38.015ZM10.523 41.208L10.7371 42.1848L11.3794 42.0441L11.5047 41.3986L10.523 41.208ZM5.00503 42.417L4.02133 42.2372L3.75111 43.7155L5.21905 43.3938L5.00503 42.417ZM18.7931 20.3146C17.5976 20.4725 16.4207 20.8101 15.2645 21.3215L16.0735 23.1505C17.0667 22.7113 18.0598 22.4288 19.055 22.2974L18.7931 20.3146ZM15.2645 21.3215C14.1158 21.8295 13.1447 22.4335 12.3811 23.1495L13.749 24.6085C14.308 24.0845 15.0729 23.5931 16.0735 23.1505L15.2645 21.3215ZM13.0433 24.8788C13.9263 24.898 14.9556 25.0139 16.1367 25.2341L16.5033 23.2679C15.2458 23.0335 14.1051 22.9014 13.0868 22.8792L13.0433 24.8788ZM16.1529 25.2369C17.3373 25.4377 18.2742 25.6728 18.9813 25.9333L19.6727 24.0567C18.8092 23.7385 17.7414 23.4777 16.4871 23.2651L16.1529 25.2369ZM18.3373 24.8522C18.0302 26.9816 17.6983 28.5832 17.3504 29.6849L19.2576 30.2871C19.6537 29.0328 20.0039 27.3071 20.3168 25.1378L18.3373 24.8522ZM17.3471 29.6955C17.0207 30.7709 16.6207 31.5271 16.1859 32.0262L17.6941 33.3398C18.3754 32.5576 18.8847 31.5158 19.2609 30.2765L17.3471 29.6955ZM16.191 32.0204C15.3709 32.9476 14.1517 33.7698 12.4711 34.4538L13.225 36.3062C15.099 35.5435 16.6079 34.5678 17.689 33.3456L16.191 32.0204ZM12.4673 34.4553C10.8287 35.13 9.14958 35.465 7.42303 35.465V37.465C9.41647 37.465 11.354 37.0767 13.2288 36.3047L12.4673 34.4553ZM7.42303 35.465C6.02523 35.465 4.86684 35.0881 3.90003 34.363L2.70003 35.963C4.04788 36.9739 5.63816 37.465 7.42303 37.465V35.465ZM3.90905 34.3698C2.99213 33.6658 2.47796 32.7142 2.37484 31.4253L0.381212 31.5847C0.526099 33.3958 1.29325 34.8829 2.691 35.9562L3.90905 34.3698ZM2.3184 31.8451C2.99738 29.968 3.84386 28.2366 4.85625 26.6486L3.1698 25.5734C2.0742 27.292 1.164 29.1567 0.437651 31.1649L2.3184 31.8451ZM4.85926 26.6438C5.86066 25.0534 7.15533 23.518 8.75307 22.0401L7.39499 20.5719C5.68606 22.1527 4.2734 23.8206 3.16679 25.5782L4.85926 26.6438ZM7.09809 21.524L7.74909 24.438L9.70097 24.002L9.04997 21.088L7.09809 21.524ZM8.11109 23.4306C6.96882 24.3191 6.01806 25.1593 5.27001 25.9514L6.72404 27.3246C7.38133 26.6287 8.24923 25.8569 9.33897 25.0094L8.11109 23.4306ZM5.27001 25.9514C4.52451 26.7407 3.85603 27.5956 3.26485 28.5152L4.94721 29.5968C5.47203 28.7804 6.06421 28.0233 6.72404 27.3246L5.27001 25.9514ZM3.26758 29.601C3.89283 30.5629 4.70033 31.3143 5.68719 31.8324L6.61686 30.0616C5.95039 29.7117 5.39389 29.2024 4.94447 28.511L3.26758 29.601ZM5.7136 31.8458C6.73741 32.3452 7.96349 32.567 9.34503 32.567V30.567C8.1639 30.567 7.26132 30.3755 6.59045 30.0482L5.7136 31.8458ZM9.34503 32.567C11.0655 32.567 12.6834 32.2909 14.1896 31.7289L13.4904 29.8551C12.2273 30.3264 10.8485 30.567 9.34503 30.567V32.567ZM14.2018 31.7243C15.6823 31.1497 16.9443 30.3956 17.9628 29.4466L16.5993 27.9834C15.7991 28.729 14.7671 29.3596 13.4783 29.8597L14.2018 31.7243ZM17.5462 27.7508C16.6578 27.5065 15.5024 27.2927 14.0972 27.1039L13.8309 29.0861C15.195 29.2693 16.2509 29.4688 17.0159 29.6792L17.5462 27.7508ZM14.0991 27.1042C12.7096 26.9147 11.4813 26.8069 10.4194 26.7852L10.3786 28.7848C11.3421 28.8045 12.4905 28.9033 13.8289 29.0858L14.0991 27.1042ZM11.3699 28.0247C11.764 26.4287 12.3453 24.891 13.1152 23.4104L11.3408 22.4876C10.4987 24.107 9.86076 25.7933 9.42818 27.5453L11.3699 28.0247ZM13.0518 23.516C14.0851 22.0147 15.2845 20.7897 16.6478 19.8296L15.4962 18.1944C13.9249 19.301 12.5616 20.7006 11.4043 22.382L13.0518 23.516ZM16.6424 19.8334C18.0332 18.8676 19.5472 18.1732 21.1896 17.7481L20.6885 15.8119C18.8175 16.2961 17.0869 17.0898 15.5016 18.1906L16.6424 19.8334ZM20.0255 16.3733L18.0105 20.8993L19.8376 21.7127L21.8526 17.1867L20.0255 16.3733ZM5.79334 40.4993L11.4043 38.9803L10.8817 37.0497L5.27072 38.5687L5.79334 40.4993ZM10.1614 37.8244L9.54136 41.0174L11.5047 41.3986L12.1247 38.2056L10.1614 37.8244ZM10.309 40.2312L4.791 41.4402L5.21905 43.3938L10.7371 42.1848L10.309 40.2312ZM5.98873 42.5968L6.51573 39.7138L4.54833 39.3542L4.02133 42.2372L5.98873 42.5968ZM37.3017 25.491L38.2403 25.836L38.3646 25.4979L38.2447 25.1582L37.3017 25.491ZM35.9687 29.118L36.6195 29.8773L36.8174 29.7076L36.9073 29.463L35.9687 29.118ZM35.3177 29.676L35.4116 30.6716L35.7276 30.6418L35.9685 30.4353L35.3177 29.676ZM33.6747 29.831L33.5808 28.8354L32.9039 28.8993L32.7144 29.5522L33.6747 29.831ZM31.1017 34.667L30.3543 34.0026L30.3543 34.0026L31.1017 34.667ZM23.5687 35.907L23.2026 36.8376L23.2092 36.8402L23.2159 36.8427L23.5687 35.907ZM20.9027 34.388L20.6211 33.4285L19.0036 33.9032L20.1956 35.0951L20.9027 34.388ZM27.0717 32.311L27.4219 33.2477L27.4266 33.2459L27.0717 32.311ZM32.3727 29.986L32.8476 30.866L33.1295 30.7139L33.2706 30.4263L32.3727 29.986ZM33.9537 26.762L33.0592 26.3148L33.0558 26.3217L33.9537 26.762ZM34.8837 25.522L35.4384 26.354L35.457 26.3416L35.4751 26.3284L34.8837 25.522ZM36.4337 25.057L36.5472 26.0505L36.558 26.0493L36.5688 26.0478L36.4337 25.057ZM37.1157 24.964L38.0587 24.6312L37.7876 23.8631L36.9806 23.9732L37.1157 24.964ZM36.3631 25.146L35.0301 28.773L36.9073 29.463L38.2403 25.836L36.3631 25.146ZM35.3179 28.3587L34.6669 28.9167L35.9685 30.4353L36.6195 29.8773L35.3179 28.3587ZM35.2238 28.6804L33.5808 28.8354L33.7686 30.8266L35.4116 30.6716L35.2238 28.6804ZM32.7144 29.5522C32.1916 31.3527 31.3992 32.8272 30.3543 34.0026L31.8491 35.3314C33.1189 33.9028 34.0418 32.1533 34.635 30.1098L32.7144 29.5522ZM30.3543 34.0026C29.3807 35.098 28.2237 35.62 26.8237 35.62V37.62C28.813 37.62 30.5081 36.84 31.8491 35.3314L30.3543 34.0026ZM26.8237 35.62C26.0781 35.62 25.1186 35.4227 23.9215 34.9713L23.2159 36.8427C24.5401 37.342 25.7506 37.62 26.8237 37.62V35.62ZM23.9348 34.9764C22.7114 34.4951 21.9784 34.0495 21.6098 33.6809L20.1956 35.0951C20.8603 35.7598 21.9047 36.3269 23.2026 36.8376L23.9348 34.9764ZM21.1843 35.3475C23.1126 34.7816 25.1921 34.0813 27.4219 33.2477L26.7215 31.3743C24.5287 32.1941 22.4954 32.8784 20.6211 33.4285L21.1843 35.3475ZM27.4266 33.2459C29.6781 32.3912 31.4908 31.5983 32.8476 30.866L31.8978 29.106C30.6506 29.779 28.9293 30.5362 26.7168 31.3761L27.4266 33.2459ZM33.2706 30.4263L34.8516 27.2023L33.0558 26.3217L31.4748 29.5457L33.2706 30.4263ZM34.8481 27.2092C35.1368 26.6318 35.3509 26.4124 35.4384 26.354L34.329 24.6899C33.7965 25.0449 33.3906 25.6522 33.0593 26.3148L34.8481 27.2092ZM35.4751 26.3284C35.5679 26.2603 35.8675 26.1282 36.5472 26.0505L36.3202 24.0635C35.5533 24.1511 34.8195 24.329 34.2923 24.7156L35.4751 26.3284ZM36.5688 26.0478L37.2508 25.9548L36.9806 23.9732L36.2986 24.0662L36.5688 26.0478ZM36.1727 25.2968L36.3587 25.8238L38.2447 25.1582L38.0587 24.6312L36.1727 25.2968ZM43.7904 7.796L43.2033 6.98646L43.1138 7.05142L43.0405 7.13438L43.7904 7.796ZM53.5244 2.092L54.4913 2.34715L55.0475 0.239238L53.087 1.19271L53.5244 2.092ZM51.4474 6.308L51.8406 7.22743L52.0868 7.12216L52.2474 6.908L51.4474 6.308ZM42.1474 10.958L41.4126 11.6363L41.96 12.2293L42.6552 11.8194L42.1474 10.958ZM41.7754 10.555L40.9317 10.0181L40.5184 10.6676L41.0406 11.2333L41.7754 10.555ZM41.4964 11.392L42.4488 11.0872L42.0555 9.85823L40.9636 10.5458L41.4964 11.392ZM41.8994 14.058L40.9027 14.1397L40.9033 14.1459L41.8994 14.058ZM42.0234 23.916L42.973 24.2293L42.9846 24.1943L42.9935 24.1585L42.0234 23.916ZM39.8844 28.318L40.3585 29.1985L40.5318 29.1051L40.6568 28.9531L39.8844 28.318ZM35.2964 29.465L34.3621 29.1085L33.7889 30.6107L35.3897 30.4606L35.2964 29.465ZM37.0944 24.753L37.0205 23.7557L36.3867 23.8027L36.1601 24.3965L37.0944 24.753ZM39.4504 24.443L39.6115 25.4299L40.5438 25.2777L40.4449 24.3383L39.4504 24.443ZM37.9004 15.174L37.0718 14.6141L36.8325 14.9683L36.9231 15.3859L37.9004 15.174ZM39.6674 12.973L38.9392 12.2876L38.9392 12.2876L39.6674 12.973ZM44.3775 8.60554C47.0274 6.68383 50.2195 4.81131 53.9617 2.99129L53.087 1.19271C49.2653 3.05136 45.9681 4.9815 43.2033 6.98646L44.3775 8.60554ZM52.5575 1.83684C52.2001 3.19119 51.5679 4.48071 50.6474 5.708L52.2474 6.908C53.3109 5.48995 54.0634 3.96881 54.4913 2.34715L52.5575 1.83684ZM51.0541 5.38857C47.5902 6.87015 44.4511 8.439 41.6395 10.0966L42.6552 11.8194C45.3824 10.2117 48.4433 8.68052 51.8406 7.22743L51.0541 5.38857ZM42.8822 10.2797L42.5102 9.87672L41.0406 11.2333L41.4126 11.6363L42.8822 10.2797ZM42.619 11.0919C43.3254 9.98189 43.966 9.10838 44.5402 8.45762L43.0405 7.13438C42.3748 7.88895 41.672 8.85478 40.9317 10.0181L42.619 11.0919ZM40.544 11.6968C40.6712 12.0943 40.7996 12.8815 40.9027 14.1397L42.896 13.9763C42.7925 12.7132 42.6523 11.7231 42.4488 11.0872L40.544 11.6968ZM40.9033 14.1459C41.0866 16.2237 41.1784 18.3436 41.1784 20.506H43.1784C43.1784 18.287 43.0842 16.1083 42.8955 13.9701L40.9033 14.1459ZM41.1784 20.506C41.1784 21.429 41.1655 22.1613 41.1407 22.7081C41.1145 23.2847 41.0773 23.5771 41.0532 23.6735L42.9935 24.1585C43.0728 23.8416 43.1131 23.359 43.1386 22.7989C43.1654 22.209 43.1784 21.443 43.1784 20.506H41.1784ZM41.0737 23.6027C40.4264 25.5648 39.7602 26.8945 39.112 27.6829L40.6568 28.9531C41.5379 27.8815 42.2977 26.2765 42.973 24.2293L41.0737 23.6027ZM39.4103 27.4375C38.5049 27.925 37.1276 28.2889 35.203 28.4694L35.3897 30.4606C37.4332 30.2691 39.1145 29.8683 40.3585 29.1985L39.4103 27.4375ZM36.2307 29.8215L38.0287 25.1095L36.1601 24.3965L34.3621 29.1085L36.2307 29.8215ZM37.1683 25.7503C37.7702 25.7057 38.5895 25.5968 39.6115 25.4299L39.2893 23.4561C38.286 23.6199 37.5346 23.7177 37.0205 23.7557L37.1683 25.7503ZM40.4449 24.3383C40.1509 21.5455 39.6274 18.4192 38.8777 14.9621L36.9231 15.3859C37.6614 18.7901 38.1712 21.8431 38.4559 24.5477L40.4449 24.3383ZM38.729 15.7339C39.2143 15.0156 39.7694 14.3237 40.3956 13.6584L38.9392 12.2876C38.2427 13.0276 37.6198 13.803 37.0718 14.6141L38.729 15.7339ZM40.3956 13.6584C41.023 12.9917 41.5676 12.5289 42.0292 12.2382L40.9636 10.5458C40.3092 10.9578 39.6344 11.549 38.9392 12.2876L40.3956 13.6584ZM53.6365 23.042L54.5309 22.5948L54.0168 21.5666L53.0697 22.2181L53.6365 23.042ZM55.4345 30.575L54.4395 30.4755L54.4345 30.5251V30.575H55.4345ZM54.7215 32.745L53.8162 32.3201L53.8125 32.3283L54.7215 32.745ZM53.0475 35.318L53.3024 36.285L53.587 36.21L53.7855 35.9928L53.0475 35.318ZM44.4915 36.465L43.5505 36.1267L43.0588 37.4944L44.5119 37.4648L44.4915 36.465ZM46.1965 31.722V30.722H45.4933L45.2555 31.3837L46.1965 31.722ZM52.4585 31.536L52.5184 32.5342L53.8813 32.4524L53.3921 31.1777L52.4585 31.536ZM49.2655 26.049L48.6987 25.2251L47.8299 25.8228L48.4729 26.6587L49.2655 26.049ZM50.3195 22.391L49.7087 23.1828L50.2721 23.6174L50.8673 23.2276L50.3195 22.391ZM48.1495 19.725L47.5948 18.8929L46.8054 19.4192L47.2895 20.2352L48.1495 19.725ZM51.0325 17.803L51.8867 17.2831L51.3449 16.3929L50.4778 16.9709L51.0325 17.803ZM51.4665 18.516L52.3207 17.9961L52.3207 17.9961L51.4665 18.516ZM52.9235 20.686L53.4713 21.5226L54.3868 20.9232L53.7076 20.0653L52.9235 20.686ZM52.7421 23.4892C53.9157 25.8365 54.4655 27.9031 54.4655 29.707H56.4655C56.4655 27.5015 55.796 25.1248 54.5309 22.5948L52.7421 23.4892ZM54.4655 29.707C54.4655 30.0673 54.4552 30.318 54.4395 30.4755L56.4296 30.6745C56.4551 30.4187 56.4655 30.0907 56.4655 29.707H54.4655ZM54.4345 30.575C54.4345 30.6349 54.413 30.806 54.3062 31.1308C54.2044 31.4408 54.0439 31.8351 53.8163 32.3201L55.6268 33.1699C55.8744 32.6422 56.0705 32.1685 56.2063 31.7552C56.3372 31.3566 56.4345 30.9491 56.4345 30.575H54.4345ZM53.8125 32.3283C53.3962 33.2365 52.8933 34.0047 52.3095 34.6432L53.7855 35.9928C54.5244 35.1846 55.1375 34.2375 55.6306 33.1617L53.8125 32.3283ZM52.7927 34.351C50.2106 35.0316 47.4379 35.4047 44.4711 35.4652L44.5119 37.4648C47.6211 37.4013 50.5525 37.0098 53.3024 36.285L52.7927 34.351ZM45.4326 36.8033L47.1376 32.0603L45.2555 31.3837L43.5505 36.1267L45.4326 36.8033ZM46.1965 32.722C48.3241 32.722 50.4314 32.6594 52.5184 32.5342L52.3986 30.5378C50.3523 30.6606 48.2849 30.722 46.1965 30.722V32.722ZM53.3921 31.1777C52.6682 29.2912 51.5499 27.3785 50.0581 25.4393L48.4729 26.6587C49.8745 28.4808 50.8848 30.2261 51.5249 31.8943L53.3921 31.1777ZM49.8323 26.8729L54.2033 23.8659L53.0697 22.2181L48.6987 25.2251L49.8323 26.8729ZM50.9303 21.5992C50.3468 21.1491 49.7001 20.3789 49.0096 19.2148L47.2895 20.2352C48.0456 21.5098 48.8456 22.5169 49.7087 23.1828L50.9303 21.5992ZM48.7042 20.557L51.5872 18.635L50.4778 16.9709L47.5948 18.8929L48.7042 20.557ZM50.1783 18.3229L50.6123 19.0359L52.3207 17.9961L51.8867 17.2831L50.1783 18.3229ZM50.6123 19.0359C51.1989 19.9996 51.7093 20.7633 52.1395 21.3067L53.7076 20.0653C53.3524 19.6167 52.8915 18.9337 52.3207 17.9961L50.6123 19.0359ZM52.3757 19.8494L49.7717 21.5544L50.8673 23.2276L53.4713 21.5226L52.3757 19.8494Z" fill="#7B4700" fill-opacity="0.32" mask="url(#path-1-outside-1_77_32)"/>
<defs>
<linearGradient id="paint0_linear_77_32" x1="66" y1="4.5" x2="-12.5" y2="48" gradientUnits="userSpaceOnUse">
<stop offset="0.249262" stop-color="#FFC73E"/>
<stop offset="1" stop-color="#50EFD2"/>
</linearGradient>
</defs>
</svg>
